<?xml version="1.0" standalone="no"?>
<!DOCTYPE svg PUBLIC "-//W3C//DTD SVG 20010904//EN"
 "http://www.w3.org/TR/2001/REC-SVG-20010904/DTD/svg10.dtd">
<svg version="1.0" xmlns="http://www.w3.org/2000/svg"
 width="276.000000pt" height="276.000000pt" viewBox="0 0 276.000000 276.000000"
 preserveAspectRatio="xMidYMid meet">
<metadata>
Created by potrace 1.10, written by Peter Selinger 2001-2011
</metadata>
<g transform="translate(0.000000,276.000000) scale(0.100000,-0.100000)"
fill="#000000" stroke="none">
<path d="M1169 2609 c-50 -9 -91 -27 -119 -54 -14 -12 -40 -26 -58 -30 -30 -6
-121 -88 -131 -118 -2 -7 -19 -31 -37 -54 -19 -23 -34 -45 -34 -49 0 -4 -8
-16 -17 -26 -24 -27 -26 -163 -3 -258 10 -41 24 -110 31 -152 7 -43 17 -78 21
-78 4 0 8 -9 8 -20 0 -11 9 -43 20 -72 23 -62 24 -66 8 -50 -18 18 -56 14 -68
-7 -17 -33 -12 -63 32 -172 48 -121 71 -160 108 -181 19 -11 29 -26 33 -54 4
-22 27 -79 52 -127 37 -71 45 -98 45 -141 0 -46 -4 -56 -31 -82 -17 -16 -49
-57 -71 -91 -37 -58 -46 -66 -126 -104 -48 -22 -169 -71 -269 -109 -222 -83
-326 -139 -416 -222 -67 -63 -68 -63 -91 -158 -13 -52 -27 -119 -31 -148 -7
-52 -6 -54 16 -50 22 3 25 11 37 93 7 50 14 102 15 117 l2 28 24 -25 c21 -21
23 -26 11 -42 -13 -17 -13 -17 4 -2 17 16 17 18 -7 54 -28 41 -27 76 1 53 13
-11 14 -10 8 8 -5 16 0 25 16 37 13 8 38 29 56 46 41 39 311 169 417 201 22 7
53 19 69 27 15 8 42 16 59 19 16 2 37 10 47 19 20 18 37 19 43 3 4 -9 6 -9 6
-2 1 17 59 76 64 67 2 -5 7 -28 11 -53 4 -25 14 -56 22 -70 10 -16 13 -18 8
-5 -23 68 -26 155 -4 155 4 0 13 14 20 30 7 17 17 33 23 37 6 3 7 1 3 -5 -4
-7 -4 -12 1 -12 4 0 6 -25 5 -55 -2 -31 0 -63 4 -73 9 -20 11 -29 13 -59 1
-16 7 -23 22 -23 16 0 19 4 14 18 -35 86 -36 109 -14 204 12 51 28 103 37 115
8 13 12 36 10 53 -3 16 -3 30 0 30 2 0 22 -15 45 -33 23 -19 56 -41 72 -50 39
-21 155 -67 170 -67 29 0 161 81 213 132 33 32 62 58 65 58 2 0 2 -20 0 -44
-4 -34 -1 -48 13 -62 26 -26 54 -121 54 -183 0 -55 -16 -97 -90 -231 -21 -39
-37 -77 -34 -85 6 -14 -16 -55 -52 -95 -38 -43 -164 -256 -164 -277 0 -13 49
51 50 65 0 6 5 12 10 12 6 0 10 7 10 15 0 8 4 15 8 15 5 0 17 19 28 41 10 23
37 61 61 85 23 24 40 44 36 44 -3 0 2 11 11 25 9 13 16 33 16 43 0 30 21 82
31 76 5 -3 9 6 9 20 0 14 5 26 10 26 6 0 10 5 10 10 0 6 14 38 31 73 18 36 36
93 43 137 l11 75 24 -45 c26 -51 53 -80 75 -80 8 0 27 -11 43 -24 15 -12 33
-21 40 -19 6 2 31 -5 55 -15 24 -11 84 -32 133 -47 50 -16 99 -34 110 -41 11
-8 25 -14 33 -14 7 0 32 -9 54 -20 23 -11 45 -20 48 -20 4 0 40 -18 81 -41 41
-22 78 -41 84 -42 15 -3 33 -21 28 -30 -2 -4 1 -6 9 -5 7 2 12 -5 12 -15 -2
-13 3 -16 17 -12 15 5 17 3 12 -11 -4 -10 -2 -15 3 -11 6 3 16 -3 23 -15 9
-15 10 -18 0 -13 -8 5 -10 4 -5 -3 4 -6 2 -22 -4 -34 l-11 -23 20 23 21 24 -4
-44 c-2 -26 2 -51 10 -63 9 -12 14 -47 14 -97 0 -77 0 -78 25 -78 30 0 30 -9
5 126 -34 185 -40 202 -91 253 -47 47 -187 128 -294 169 -87 34 -351 130 -410
149 -61 20 -99 53 -130 114 -13 25 -42 66 -64 90 -39 41 -41 46 -41 107 0 41
7 78 20 106 10 23 27 70 36 104 14 52 21 62 39 62 34 0 57 34 113 160 43 97
52 124 52 151 0 35 -34 61 -68 52 -22 -5 -24 -3 -18 13 4 10 14 39 21 64 7 25
21 70 30 100 9 30 21 69 26 85 8 29 12 170 6 225 -2 14 -8 35 -15 47 -7 12
-14 30 -15 40 -18 90 -129 223 -225 269 -36 17 -70 38 -76 46 -10 14 -79 39
-186 69 -49 13 -195 18 -251 8z m214 -47 c8 -7 32 -12 53 -12 33 0 72 -3 107
-9 4 0 7 -8 7 -16 0 -8 6 -16 13 -16 6 -1 17 -2 22 -3 25 -3 201 -163 245
-221 15 -20 14 -20 -8 -1 -36 31 -35 13 1 -21 18 -17 39 -48 46 -69 18 -52 27
-292 12 -307 -6 -6 -11 -23 -11 -37 0 -14 -7 -35 -15 -46 -8 -10 -15 -27 -15
-36 0 -10 -4 -18 -10 -18 -5 0 -10 -15 -10 -34 0 -19 -4 -38 -10 -41 -6 -4
-10 5 -10 20 0 15 -10 41 -22 58 -13 18 -21 38 -20 45 2 8 -1 11 -6 8 -15 -9
-35 55 -21 68 7 8 15 5 25 -8 19 -27 18 -17 -6 29 -12 24 -27 39 -40 40 -11 1
-18 -1 -15 -3 3 -3 0 -11 -6 -19 -9 -10 -7 -13 10 -13 21 0 29 -24 12 -34 -14
-9 7 -86 33 -117 19 -23 25 -45 31 -126 9 -109 8 -135 -8 -145 -6 -3 -10 -23
-9 -43 1 -21 -3 -33 -8 -30 -6 3 -10 -1 -10 -10 0 -9 5 -13 10 -10 13 8 13 4
-2 -53 -7 -27 -22 -55 -35 -66 -17 -13 -21 -21 -13 -30 5 -7 7 -16 3 -20 -4
-3 -8 -16 -10 -28 -2 -11 -9 -35 -17 -52 -7 -17 -19 -46 -26 -64 -15 -40 -127
-140 -183 -165 -55 -25 -172 -19 -239 11 -56 24 -138 90 -138 110 0 8 -8 26
-18 40 -25 35 -43 92 -35 105 4 6 0 8 -11 4 -9 -4 -15 -3 -12 2 7 10 -37 150
-62 200 -9 19 -31 48 -49 63 -20 18 -30 35 -26 44 4 10 8 12 12 5 4 -6 13 37
20 96 19 164 18 162 78 220 31 29 50 53 44 53 -6 0 -11 7 -11 15 0 8 -4 15
-10 15 -5 0 -10 -5 -10 -10 0 -6 -17 -29 -37 -51 -21 -22 -45 -53 -54 -70 -18
-32 -32 -25 -42 21 -3 14 -12 52 -20 85 -61 245 -64 379 -11 432 9 9 26 32 39
52 36 56 102 121 122 121 24 0 85 49 76 63 -3 5 0 7 8 5 8 -3 22 2 33 11 13
12 42 17 108 18 50 1 93 5 96 8 3 3 0 5 -6 5 -7 0 -12 4 -12 9 0 10 62 -10 83
-27z m-526 -927 c17 -9 34 -22 37 -30 8 -22 -11 -65 -29 -65 -24 0 -18 -45 11
-93 15 -23 31 -43 35 -45 15 -6 10 -32 -6 -32 -8 0 -15 5 -15 11 0 5 -4 7 -10
4 -5 -3 -7 0 -4 9 3 8 -5 29 -17 46 -17 22 -24 48 -27 95 -4 66 4 80 28 50 7
-9 15 -13 18 -10 3 3 -12 21 -34 40 -42 37 -36 45 13 20z m1013 -27 c-14 -13
-35 -34 -47 -48 l-23 -25 0 28 c0 35 27 62 65 65 l30 2 -25 -22z m42 -13 c3
-3 1 -25 -6 -48 l-11 -42 -6 45 -6 45 -1 -54 c-2 -54 -34 -141 -53 -141 -5 0
-9 -4 -9 -9 0 -5 -5 -22 -12 -38 -7 -15 -12 -35 -12 -43 -1 -8 -10 -16 -20
-18 -17 -4 -18 0 -12 39 4 24 14 49 24 56 55 39 77 87 48 108 -23 18 -20 45
11 77 25 26 52 35 65 23z m-90 -139 c-7 -28 -21 -46 -37 -46 -13 0 -11 10 11
89 7 23 32 -19 26 -43z m-886 -116 c1 -19 -3 -29 -10 -27 -17 6 -20 38 -4 48
7 5 13 9 13 9 0 0 0 -14 1 -30z"/>
<path d="M1320 2525 c14 -8 31 -14 38 -15 8 0 27 -9 43 -21 16 -11 34 -19 40
-17 12 4 -113 68 -133 68 -7 -1 -2 -7 12 -15z"/>
<path d="M1460 2531 c0 -5 11 -16 24 -24 22 -15 24 -15 22 -1 -4 23 -46 47
-46 25z"/>
<path d="M1520 2525 c7 -8 9 -15 4 -15 -5 0 -2 -5 6 -10 12 -8 12 -10 1 -10
-11 0 -11 -3 -1 -15 7 -8 17 -15 22 -15 6 0 5 7 -2 15 -19 22 0 18 29 -7 14
-12 9 -5 -11 16 -21 20 -38 41 -38 47 0 5 -5 9 -11 9 -8 0 -8 -5 1 -15z"/>
<path d="M1226 2511 c-18 -7 -18 -8 5 -14 13 -4 32 -7 43 -7 15 0 16 3 6 15
-14 16 -25 18 -54 6z"/>
<path d="M1095 2471 c-15 -7 -2 -10 48 -10 38 -1 66 -5 63 -10 -9 -13 31 -20
43 -8 8 8 11 8 11 0 0 -5 21 -18 48 -28 26 -10 74 -33 106 -52 51 -29 57 -31
45 -12 -8 12 -51 38 -96 58 -44 20 -88 42 -96 49 -19 16 -145 25 -172 13z"/>
<path d="M1460 2468 c3 -3 28 -15 55 -27 47 -20 49 -20 25 -1 -14 11 -30 20
-37 20 -6 0 -20 3 -30 7 -10 3 -16 4 -13 1z"/>
<path d="M1678 2394 c23 -19 42 -40 42 -46 0 -6 10 -27 22 -47 12 -19 23 -42
25 -49 1 -8 5 -17 9 -20 4 -4 4 1 1 11 -4 11 -1 17 9 17 13 0 11 6 -6 30 -35
49 -121 140 -133 140 -6 0 8 -16 31 -36z"/>
<path d="M1067 2396 c-26 -7 -51 -16 -55 -21 -9 -10 78 5 102 17 12 7 21 7 25
0 3 -5 47 -22 96 -37 124 -38 123 -38 95 -21 -14 8 -32 15 -40 16 -8 0 -28 7
-44 15 -15 8 -40 15 -53 15 -18 0 -24 4 -19 15 7 19 -38 19 -107 1z"/>
<path d="M1590 2380 c19 -18 53 -49 75 -69 23 -20 51 -49 63 -65 12 -16 25
-26 28 -23 10 10 -48 78 -104 121 -79 60 -102 73 -62 36z"/>
<path d="M1496 2365 c21 -19 33 -35 25 -35 -18 0 -8 -11 13 -14 9 -1 23 -11
31 -22 9 -11 14 -13 13 -5 -4 18 -96 111 -111 111 -6 0 7 -16 29 -35z"/>
<path d="M1120 2329 c-25 -4 -64 -8 -87 -8 -24 -1 -43 -5 -43 -11 0 -19 152
-2 174 20 6 6 8 9 6 9 -3 -1 -25 -5 -50 -10z"/>
<path d="M1660 2281 c36 -32 67 -57 69 -55 8 8 -103 114 -118 114 -9 0 14 -27
49 -59z"/>
<path d="M1185 2320 c-14 -6 -2 -9 40 -11 53 -1 56 -2 25 -9 l-35 -7 34 -2
c39 -1 133 -40 126 -52 -3 -4 6 -10 19 -13 14 -3 30 -20 40 -41 10 -21 22 -33
28 -29 6 4 8 3 5 -3 -4 -6 2 -18 13 -28 11 -10 20 -28 20 -41 0 -21 -4 -23
-47 -23 -233 3 -299 -9 -160 -26 26 -4 47 -11 47 -17 0 -6 -8 -7 -17 -3 -10 3
-38 8 -63 11 -25 2 -58 6 -75 10 -22 4 -26 2 -15 -5 10 -7 3 -11 -30 -14 -27
-2 -12 -4 38 -5 65 -2 84 -5 89 -18 3 -9 0 -20 -8 -25 -8 -5 -9 -9 -4 -9 6 0
34 16 63 35 43 28 64 35 108 36 51 2 58 -1 79 -27 13 -16 21 -33 18 -38 -4 -5
-1 -6 6 -2 9 6 8 13 -6 28 -18 20 -18 21 7 14 22 -6 21 -4 -7 14 -29 19 -31
23 -18 37 29 29 17 58 -62 144 -42 46 -91 92 -109 101 -36 20 -119 29 -149 18z"/>
<path d="M1448 2293 c6 -2 10 -8 7 -13 -3 -4 3 -14 13 -21 15 -13 16 -12 3 4
-7 9 -9 17 -4 17 17 0 92 -85 123 -140 17 -30 28 -44 24 -30 -19 68 -124 191
-162 189 -10 0 -12 -3 -4 -6z"/>
<path d="M1552 2239 c13 -17 38 -54 55 -82 18 -29 33 -44 33 -35 0 9 -4 19 -9
23 -13 7 -42 67 -36 73 2 2 17 -16 32 -41 15 -26 34 -47 41 -47 22 0 13 18
-38 72 -28 30 -47 44 -44 33 5 -16 2 -15 -20 8 -36 36 -43 34 -14 -4z"/>
<path d="M1193 2244 c10 -10 77 -22 77 -14 0 4 -14 10 -31 14 -39 8 -54 8 -46
0z"/>
<path d="M1640 2246 c0 -10 50 -86 56 -86 2 0 4 7 4 15 0 16 -59 86 -60 71z"/>
<path d="M1490 2224 c0 -3 15 -24 34 -47 18 -23 39 -53 45 -65 19 -36 25 -18
7 20 -23 48 -86 116 -86 92z"/>
<path d="M1018 2213 c-36 -9 -18 -26 20 -19 20 3 43 6 50 6 6 0 12 5 12 10 0
6 -9 10 -19 10 -11 0 -23 -4 -26 -10 -3 -5 -11 -10 -16 -10 -6 0 -7 5 -4 10 3
6 5 9 3 9 -2 -1 -11 -3 -20 -6z"/>
<path d="M1336 2189 c3 -5 -16 -7 -43 -4 l-48 5 35 -16 c53 -25 107 -34 107
-17 0 8 -8 11 -21 8 -12 -3 -15 -2 -8 1 18 8 15 21 -8 27 -11 3 -18 1 -14 -4z"/>
<path d="M1215 2130 c-3 -4 12 -11 33 -15 53 -10 62 -19 27 -26 -19 -5 -4 -7
43 -7 39 0 72 2 72 4 0 16 -166 58 -175 44z"/>
<path d="M1544 2085 c-1 -28 3 -42 11 -39 13 5 13 43 0 66 -8 13 -10 7 -11
-27z"/>
<path d="M1010 2105 c0 -2 21 -14 48 -25 26 -11 55 -25 65 -31 10 -5 28 -7 39
-3 16 5 1 13 -63 35 -93 32 -89 31 -89 24z"/>
<path d="M1112 1982 c-17 -12 32 -34 55 -25 12 5 14 3 8 -7 -6 -10 -4 -12 9
-7 10 4 20 7 22 7 2 0 4 7 4 16 0 12 -8 14 -36 10 -22 -4 -33 -2 -29 4 7 12
-15 13 -33 2z"/>
<path d="M1178 1920 c-55 -29 -80 -50 -59 -50 6 0 11 5 11 11 0 5 4 8 8 5 4
-2 28 9 52 25 73 49 70 51 -12 9z"/>
<path d="M1003 1728 c-35 -21 -43 -38 -18 -38 8 0 15 4 15 9 0 13 83 30 115
23 15 -2 29 -11 32 -18 3 -8 11 -14 18 -14 8 0 21 -7 29 -16 9 -9 16 -11 16
-4 0 6 4 9 9 6 5 -4 6 4 3 16 -5 19 -7 20 -10 5 -3 -15 -9 -13 -36 16 -23 25
-40 34 -64 34 -17 0 -32 -4 -32 -8 0 -5 -10 -5 -22 0 -16 6 -33 2 -55 -11z"/>
<path d="M1493 1735 c-20 -14 -38 -65 -23 -65 10 0 28 22 28 35 0 5 5 11 11
13 6 2 11 -1 11 -7 0 -17 28 -1 33 20 6 24 -28 26 -60 4z"/>
<path d="M1574 1734 c-18 -15 -18 -15 5 -8 16 4 21 3 17 -5 -4 -6 -13 -11 -21
-11 -8 0 -16 -4 -20 -10 -3 -5 7 -8 24 -7 16 1 29 6 28 11 -1 6 7 12 18 14 18
4 18 3 5 -14 -14 -18 -14 -18 3 -5 16 12 21 11 47 -8 22 -15 30 -18 30 -8 0
19 -28 42 -69 56 -43 14 -43 14 -67 -5z"/>
<path d="M1063 1708 c-18 -5 -35 -13 -39 -19 -4 -8 1 -9 17 -3 13 4 40 10 59
14 27 4 30 7 15 11 -11 3 -34 2 -52 -3z"/>
<path d="M1140 1656 c19 -7 35 -18 35 -24 0 -5 4 -14 9 -19 5 -5 6 -3 2 5 -8
14 10 17 19 2 3 -5 -7 -22 -22 -37 -19 -18 -22 -24 -10 -20 10 4 25 7 33 7 11
0 13 6 8 22 -6 20 -5 21 10 9 9 -7 16 -20 16 -28 0 -12 3 -13 14 -4 16 13 11
45 -10 62 -12 10 -13 9 -8 -6 5 -12 -5 -9 -36 14 -24 17 -55 31 -69 30 -24 0
-23 -2 9 -13z"/>
<path d="M1033 1640 c-18 -11 -33 -23 -33 -26 0 -3 12 1 26 11 14 9 28 14 31
11 3 -2 -13 -14 -35 -25 -44 -22 -62 -41 -39 -41 7 0 31 13 52 29 39 29 39 29
50 8 20 -40 75 -29 75 14 0 16 -8 19 -52 20 -39 0 -48 3 -33 9 13 6 15 9 5 9
-8 1 -30 -8 -47 -19z"/>
<path d="M1461 1631 c-17 -16 -31 -33 -31 -37 0 -4 10 2 23 14 34 32 45 27 13
-7 l-27 -28 43 -11 c50 -13 62 -9 19 6 -34 12 -38 23 -16 42 12 10 19 7 38
-16 27 -31 55 -28 64 6 7 25 15 25 38 0 17 -19 17 -20 -9 -30 -15 -5 -32 -10
-37 -10 -5 0 -9 -4 -9 -10 0 -14 15 -12 58 7 20 9 43 15 50 14 26 -4 10 15
-33 38 -25 13 -43 26 -41 29 3 2 20 -5 39 -17 37 -23 47 -25 47 -13 0 5 -15
15 -33 24 -27 13 -48 15 -98 8 -70 -8 -85 -6 -48 9 23 9 23 10 3 10 -12 1 -36
-12 -53 -28z"/>
<path d="M1406 1608 c-15 -50 -17 -86 -5 -93 9 -6 10 -1 7 19 -3 14 -1 26 5
26 6 0 7 3 4 6 -3 4 -2 16 4 26 7 13 7 24 1 30 -6 6 -12 1 -16 -14z"/>
<path d="M1020 1571 c0 -6 11 -13 25 -17 14 -3 23 -10 20 -14 -3 -5 4 -6 15
-3 27 7 25 20 -4 27 -13 3 -31 9 -40 12 -9 3 -16 1 -16 -5z"/>
<path d="M1503 1530 c27 -21 101 -30 117 -14 5 5 -13 9 -46 10 -30 0 -60 6
-66 12 -7 7 -16 12 -21 12 -5 0 2 -9 16 -20z"/>
<path d="M1426 1424 c16 -37 19 -114 5 -114 -5 0 -14 6 -21 14 -6 8 -18 12
-26 9 -23 -9 -16 -23 12 -23 19 0 25 -4 20 -15 -4 -13 -2 -13 14 -5 31 17 38
39 27 84 -5 22 -14 46 -19 53 -5 7 -7 16 -4 21 3 5 -1 9 -8 9 -11 0 -11 -6 0
-33z"/>
<path d="M1214 1376 c-11 -27 1 -69 24 -84 21 -13 22 -13 16 3 -6 14 -3 16 14
11 11 -4 23 -2 27 4 11 18 -3 24 -30 12 -28 -13 -34 -7 -37 37 -2 34 -6 38
-14 17z"/>
<path d="M1706 1352 c-12 -20 -18 -84 -7 -77 6 3 11 15 11 26 0 10 4 19 9 19
10 0 9 25 -1 35 -3 4 -9 2 -12 -3z"/>
<path d="M1303 1296 c5 -16 57 -20 57 -4 0 8 -13 13 -30 14 -18 1 -29 -3 -27
-10z"/>
<path d="M1498 1193 c-3 -17 -42 -22 -218 -26 -109 -3 -121 -1 -113 20 5 13 3
13 -15 4 -27 -15 -28 -32 -2 -49 11 -7 20 -8 20 -3 0 5 50 9 113 8 61 0 137 2
167 6 30 3 65 6 78 7 30 0 26 29 -5 41 -16 6 -23 4 -25 -8z"/>
<path d="M1429 1110 c-17 -13 -19 -19 -9 -19 16 0 50 22 50 33 0 12 -18 6 -41
-14z"/>
<path d="M1240 1068 c0 -14 49 -20 120 -16 114 6 103 23 -15 23 -58 0 -105 -3
-105 -7z"/>
<path d="M1386 995 c-9 -9 -16 -22 -16 -28 1 -7 9 -2 19 11 13 15 21 18 24 10
2 -7 7 -10 11 -7 4 3 0 11 -8 18 -11 9 -17 8 -30 -4z"/>
<path d="M845 610 c-3 -6 -3 -19 0 -30 4 -11 2 -20 -4 -20 -5 0 -12 8 -14 18
-3 9 -5 -1 -5 -23 0 -22 2 -34 5 -27 2 6 11 12 19 12 10 0 14 12 14 40 0 41
-4 48 -15 30z"/>
<path d="M837 517 c-2 -7 -1 -30 2 -52 l7 -40 5 48 c4 47 -3 71 -14 44z"/>
<path d="M1044 518 c7 -30 29 -72 33 -61 2 6 -3 25 -12 42 -16 32 -25 40 -21
19z"/>
<path d="M1140 450 c0 -5 10 -11 23 -11 12 -1 34 -2 48 -3 15 -1 34 -10 43
-19 17 -16 42 -14 31 2 -18 30 -145 56 -145 31z"/>
<path d="M1532 434 c-34 -24 -26 -33 13 -16 35 16 46 32 22 32 -7 0 -23 -7
-35 -16z"/>
<path d="M1080 436 c0 -4 15 -31 34 -61 33 -50 39 -75 23 -91 -4 -4 -7 -12 -7
-17 0 -6 9 0 20 13 l21 24 17 -25 c28 -40 85 -100 90 -95 2 3 -8 21 -24 39
-16 19 -56 71 -89 116 -58 80 -85 111 -85 97z"/>
<path d="M830 365 c-1 -5 -3 -14 -4 -20 -1 -5 -8 -23 -14 -39 -18 -42 -8 -43
12 -1 10 20 15 43 13 53 -3 9 -6 13 -7 7z"/>
<path d="M949 299 c-48 -49 -49 -50 -94 -44 -38 6 -45 5 -45 -9 0 -13 11 -16
49 -16 54 0 84 8 76 20 -3 4 2 13 10 20 12 10 15 9 15 -4 0 -19 21 -21 38 -4
10 10 15 10 21 -1 5 -8 7 -20 4 -28 -3 -7 1 -14 8 -14 8 -1 25 -2 39 -4 14 -1
42 -3 62 -3 53 -3 94 -43 140 -137 27 -54 37 -69 33 -45 -4 19 -11 41 -16 50
-28 51 -49 101 -40 96 5 -4 31 -34 56 -67 35 -46 44 -65 39 -84 -8 -32 4 -32
16 0 8 21 3 35 -31 88 -22 34 -44 62 -48 62 -5 0 -31 15 -59 33 -32 20 -67 34
-94 36 -71 6 -97 24 -104 68 -4 21 -11 38 -16 38 -5 0 -32 -23 -59 -51z"/>
<path d="M1704 284 c-7 -28 -54 -54 -100 -54 -19 0 -44 -18 -92 -68 -75 -76
-105 -111 -121 -141 -10 -17 -9 -20 4 -15 8 4 15 10 15 15 0 5 3 8 8 8 4 -1
14 -1 22 0 12 1 13 3 1 10 -18 12 -5 32 16 24 11 -4 14 -2 9 5 -9 15 21 60 46
68 11 3 17 8 14 11 -11 11 31 42 67 48 20 4 40 11 43 16 3 5 14 9 24 9 10 0
27 11 37 25 18 24 19 24 63 11 25 -8 71 -26 103 -40 70 -32 75 -32 51 -4 -18
20 -172 98 -194 98 -5 0 -13 -12 -16 -26z"/>
<path d="M340 88 c0 -52 4 -88 10 -88 13 0 13 140 0 160 -7 10 -10 -12 -10
-72z"/>
<path d="M2375 148 c-18 -70 -31 -148 -25 -148 9 0 27 62 35 123 7 48 0 65
-10 25z"/>
<path d="M150 133 c0 -15 61 -106 67 -100 3 3 -7 21 -21 40 -14 19 -26 39 -26
45 0 6 -4 14 -10 17 -5 3 -10 2 -10 -2z"/>
</g>
</svg>
